<svg id="Layer_1" data-name="Layer 1" xmlns="http://www.w3.org/2000/svg" viewBox="0 0 44.22 44.25"><defs><style>.cls-1{fill:#5bc0be;}.cls-2{fill:#fff;}</style></defs><path class="cls-1" d="M41.69,9.28,34.26,1.84,26.82,9.28h3c.6,0,.87.27.87.87,0,4.87.06,9.74,0,14.6a10.07,10.07,0,0,1-3.6,7.54,10.48,10.48,0,0,1-5.72,2.59A10.7,10.7,0,0,1,9.77,27.52a9.53,9.53,0,0,1-.5-3V12.12a.72.72,0,0,1,1.43,0v6.72A10.58,10.58,0,0,1,20,13.58a10.6,10.6,0,0,1,9.25,5.23v-8.1H25.09a.75.75,0,0,1-.77-.43.74.74,0,0,1,.23-.89L33.65.3a.72.72,0,0,1,1.17,0l9.12,9.11a.74.74,0,0,1,.21.87.73.73,0,0,1-.74.43H39.94v.45c0,4.29,0,8.57,0,12.86a19.73,19.73,0,0,1-4.5,12.86,19.54,19.54,0,0,1-10.15,6.63,18.79,18.79,0,0,1-8.91.37C8.76,42.31,3.64,37.8,1,30.49a17.27,17.27,0,0,1-1-5.66c0-3.48,0-7,0-10.45a.75.75,0,0,1,.37-.72.58.58,0,0,1,.71,0,1.28,1.28,0,0,1,.33.63,4.42,4.42,0,0,1,0,.89c0,3.21-.08,6.42,0,9.63a18.08,18.08,0,0,0,7,13.94,17.2,17.2,0,0,0,7.77,3.64,18.14,18.14,0,0,0,16.46-4.67A18,18,0,0,0,38.13,28a18.86,18.86,0,0,0,.39-4q0-6.9,0-13.79c0-.76.23-1,1-1Z"/><path class="cls-1" d="M6.42,8.93V1.55c0-.58.42-.94.9-.8a.7.7,0,0,1,.52.62,1.82,1.82,0,0,1,0,.33V16.14c0,.65-.24,1-.71,1s-.72-.33-.72-1Z"/><path class="cls-1" d="M4.28,9.66v3.82a.74.74,0,0,1-.38.71.67.67,0,0,1-.72,0,.77.77,0,0,1-.33-.71c0-1.33,0-2.66,0-4s0-2.46,0-3.69a.72.72,0,0,1,.39-.68.69.69,0,0,1,.72,0,.8.8,0,0,1,.33.72C4.28,7.11,4.28,8.38,4.28,9.66Z"/><path class="cls-1" d="M10.7,6.43V9.17A.73.73,0,0,1,10,10c-.44,0-.73-.31-.73-.83V3.69c0-.5.28-.82.7-.82s.73.31.73.83Z"/><path class="cls-1" d="M0,10V8.64a.72.72,0,1,1,1.43,0c0,.91,0,1.82,0,2.73a.7.7,0,0,1-.72.76.72.72,0,0,1-.7-.76Z"/><path class="cls-1" d="M4.28,16.07c0,.14,0,.27,0,.4a.71.71,0,0,1-.74.65.7.7,0,0,1-.68-.67,6.42,6.42,0,0,1,0-.76.7.7,0,0,1,.68-.7.72.72,0,0,1,.74.69c0,.13,0,.26,0,.39Z"/><path class="cls-1" d="M6.42,20.32a2.67,2.67,0,0,1,0-.4.7.7,0,0,1,.7-.65.71.71,0,0,1,.71.64,5.61,5.61,0,0,1,0,.82.69.69,0,0,1-.72.67.71.71,0,0,1-.7-.69v-.39Z"/><path class="cls-1" d="M20.71,25v2.13c.51,0,1,0,1.47,0s.63-.34.64-.81c0-1-.08-1.15-.61-1.31h-1.5Zm-1.47-3.57c-.52,0-1,0-1.48,0a.7.7,0,0,0-.64.72c-.06.9.08,1.31.55,1.37a13.71,13.71,0,0,0,1.57,0Z"/><path class="cls-2" d="M21,19.33v.25c0,.91,0,1.81,0,2.71a.35.35,0,0,0,.28.4,3.56,3.56,0,0,1,1.78,1.09,3.26,3.26,0,0,1,0,4A3.31,3.31,0,0,1,21.19,29a.33.33,0,0,0-.18.23,4,4,0,0,0,0,.6.72.72,0,0,1-.71.73.72.72,0,0,1-.7-.73c0-.23.06-.51-.05-.67s-.39-.11-.6-.14a4.36,4.36,0,0,1-1.62-.71.69.69,0,0,1-.25-1,.72.72,0,0,1,1-.24c.37.18.75.36,1.13.52a2.35,2.35,0,0,0,.42.06v-.3c0-1.21,0-2.43,0-3.64a.36.36,0,0,0-.25-.38c-.28-.13-.55-.29-.82-.45a2.57,2.57,0,0,1-1-3.33A2.69,2.69,0,0,1,19.35,18a.28.28,0,0,0,.25-.35,2.16,2.16,0,0,1,0-.44.67.67,0,0,1,.67-.7.69.69,0,0,1,.72.67,3.85,3.85,0,0,1,0,.48c0,.17.06.24.23.27a3.52,3.52,0,0,1,1.47.67.71.71,0,0,1,.19,1,.71.71,0,0,1-1,.12c-.25-.16-.52-.29-.78-.43Zm0,8.25a2,2,0,0,0,1.29-2.06A1.6,1.6,0,0,0,21,24.14Zm-1.45-5.67V19.4a1.4,1.4,0,0,0-.9,1.28A1.16,1.16,0,0,0,19.57,21.91Z"/></svg>