<svg id="Layer_1" data-name="Layer 1" xmlns="http://www.w3.org/2000/svg" viewBox="0 0 47.92 44.22"><defs><style>.cls-1{fill:#5bc0be;}</style></defs><path class="cls-1" d="M17.29,12.65c0-.4.05-.76.11-1.12a2.49,2.49,0,0,1,2.36-2c1,0,2.07,0,3.1,0h9.58l0-.08a4.35,4.35,0,0,0-.57-.49c-.43-.26-.87-.51-1.32-.74a2.16,2.16,0,0,1-.83-3.26,3.61,3.61,0,0,1,.91-.73c.26-.18.56-.29.83-.44a4.23,4.23,0,0,0,1.71-1.84A8.68,8.68,0,0,1,33.67,1a2.14,2.14,0,0,1,3.67,0c.22.35.39.74.59,1.1a4.22,4.22,0,0,0,1.82,1.73c.3.15.61.3.9.48a2.16,2.16,0,0,1,0,3.68c-.32.19-.66.35-1,.53a3.54,3.54,0,0,0-1.14.9l.32,0h2.34a.68.68,0,0,1,.77.7.7.7,0,0,1-.78.7c-1.09,0-2.19,0-3.28,0a.42.42,0,0,0-.43.25,2.08,2.08,0,0,1-2,1.23,2.06,2.06,0,0,1-1.91-1.22.42.42,0,0,0-.45-.26q-6.51,0-13,0a1.24,1.24,0,0,0-1.35,1.34c0,.6,0,.61.59.75a16.42,16.42,0,0,1,5.87,2.69.83.83,0,0,0,.48.15H42.58A1.18,1.18,0,0,0,43.9,14.5c0-.78,0-1.55,0-2.33a2.41,2.41,0,0,0-.19-.78.71.71,0,0,1,.27-1,.69.69,0,0,1,1,.33,2.48,2.48,0,0,1,.36,1.32c0,.88,0,1.75,0,2.63a2.48,2.48,0,0,1-1.41,2.26c-.18.1-.19.16-.13.36A3.55,3.55,0,0,1,44,18.36c0,.89,0,1.79,0,2.68a8.91,8.91,0,0,1-.17,1.08,1.85,1.85,0,0,0,.27,0c.52,0,1,0,1.57,0a2.5,2.5,0,0,1,2.14,1.86,3.76,3.76,0,0,1,.1.75c0,.82,0,1.64,0,2.47a2.6,2.6,0,0,1-2.48,2.63l-.33,0a.86.86,0,0,0,0,.17,12.16,12.16,0,0,1,.18,1.21c0,.77,0,1.54,0,2.31a2.56,2.56,0,0,1-2,2.58,4.1,4.1,0,0,1-.86.06H29.92a.57.57,0,0,0-.56.31,15.77,15.77,0,0,1-8.86,6.95A15.87,15.87,0,0,1,7.61,41.92a.71.71,0,0,1-.41-.8.6.6,0,0,1,.54-.53,1.21,1.21,0,0,1,.64.15,14.59,14.59,0,0,0,3.15,1.41,14.39,14.39,0,0,0,5.94.56,13.94,13.94,0,0,0,6.29-2.3,14.17,14.17,0,0,0,5.52-6.88A13.66,13.66,0,0,0,30,25.92,14.15,14.15,0,0,0,21.15,15a12.94,12.94,0,0,0-6.48-1,14.14,14.14,0,0,0-12.1,8.71,13.61,13.61,0,0,0-1,7.77A14.25,14.25,0,0,0,5.5,38.46a1.69,1.69,0,0,1,.39.54.64.64,0,0,1-.3.77.66.66,0,0,1-.87-.11c-.36-.37-.72-.74-1-1.14A15.33,15.33,0,0,1,.68,33a15.79,15.79,0,0,1-.6-6.15,15.61,15.61,0,0,1,2.16-6.57,15.8,15.8,0,0,1,7-6.26,15.61,15.61,0,0,1,7.21-1.44l.42,0ZM30.91,23.58a1.23,1.23,0,0,0,.05.22,15.59,15.59,0,0,1,.67,4.34c0,.36,0,.36.37.36H45.2a1.18,1.18,0,0,0,1.3-1.3q0-1.18,0-2.37a1.44,1.44,0,0,0,0-.41,1.18,1.18,0,0,0-1.31-.86H31.23Zm-3.85-6.34.08.12A15.68,15.68,0,0,1,30.26,22a.33.33,0,0,0,.35.21H41.35a1.16,1.16,0,0,0,1.26-1.26c0-.8,0-1.61,0-2.41a1.39,1.39,0,0,0-.09-.54,1.18,1.18,0,0,0-1.24-.72H27.38Zm3.23,17.58.29,0H42.63a1.16,1.16,0,0,0,1.27-1.27c0-.81,0-1.61,0-2.42a1.55,1.55,0,0,0-.07-.48,1.16,1.16,0,0,0-1.22-.77H31.87c-.18,0-.31,0-.34.25A14.71,14.71,0,0,1,30.62,34C30.52,34.24,30.41,34.51,30.29,34.82Zm5.24-33.4a.71.71,0,0,0-.69.38c-.08.14-.16.29-.23.44A5.76,5.76,0,0,1,32.17,5c-.35.19-.7.36-1,.55a.76.76,0,0,0,0,1.33,3,3,0,0,0,.4.21,5.78,5.78,0,0,1,2.38,1.88c.33.5.6,1,.89,1.56a.77.77,0,0,0,.69.45.75.75,0,0,0,.72-.45c.09-.2.2-.39.29-.58a5.56,5.56,0,0,1,2.36-2.53c.33-.19.69-.34,1-.54a.76.76,0,0,0,0-1.32l-.48-.26a5.75,5.75,0,0,1-2.94-2.89c-.09-.18-.18-.36-.28-.54A.71.71,0,0,0,35.53,1.42Z"/><path class="cls-1" d="M15.83,16.92A11.48,11.48,0,1,1,4.33,28.37,11.5,11.5,0,0,1,15.83,16.92Z"/><path class="cls-1" d="M6.12,12.58a1.83,1.83,0,0,1-1.6-.89,4.11,4.11,0,0,1-.27-.51A3.53,3.53,0,0,0,2.47,9.37a2.48,2.48,0,0,1-1.08-.76A1.88,1.88,0,0,1,2,5.87c.19-.11.39-.22.6-.32A3.39,3.39,0,0,0,4.21,3.87a6.15,6.15,0,0,1,.37-.66,1.86,1.86,0,0,1,3.11,0A6.23,6.23,0,0,1,8.08,4,3.49,3.49,0,0,0,9.69,5.56a4,4,0,0,1,1,.62,1.85,1.85,0,0,1-.37,2.91c-.22.13-.44.25-.67.36a3.32,3.32,0,0,0-1.59,1.61c-.1.21-.21.42-.33.62A1.84,1.84,0,0,1,6.12,12.58Zm3.7-5.17a1.59,1.59,0,0,0-.25-.33,1.62,1.62,0,0,0-.41-.22A4.74,4.74,0,0,1,6.83,4.6q-.12-.25-.27-.51a.47.47,0,0,0-.88,0c-.06.1-.11.2-.16.3A4.8,4.8,0,0,1,3.18,6.81l-.49.25a.47.47,0,0,0,0,.84l.18.1A5,5,0,0,1,5.3,10.14c.14.27.26.54.41.79a.46.46,0,0,0,.82,0,2.93,2.93,0,0,0,.21-.39A4.59,4.59,0,0,1,8.32,8.61c.36-.24.75-.44,1.14-.65A.59.59,0,0,0,9.82,7.41Z"/><path class="cls-1" d="M2.86,8l-.18-.1a.47.47,0,0,1,0-.84l.49-.25A4.8,4.8,0,0,0,5.52,4.39c.05-.1.1-.2.16-.3a.47.47,0,0,1,.88,0q.15.25.27.51A4.74,4.74,0,0,0,9.16,6.86a1.62,1.62,0,0,1,.41.22,1.59,1.59,0,0,1,.25.33A.59.59,0,0,1,9.46,8c-.39.21-.78.41-1.14.65a4.59,4.59,0,0,0-1.58,1.93,2.93,2.93,0,0,1-.21.39.46.46,0,0,1-.82,0c-.15-.25-.27-.52-.41-.79"/><path class="cls-1" d="M16.49,32.45a2,2,0,0,0,1.29-2.07A1.59,1.59,0,0,0,16.49,29ZM15,26.78V24.27a1.39,1.39,0,0,0-.89,1.28A1.15,1.15,0,0,0,15,26.78Z"/></svg>