<svg id="Layer_1" data-name="Layer 1" xmlns="http://www.w3.org/2000/svg" viewBox="0 0 43 41.31"><defs><style>.cls-1{fill:#5bc0be;}</style></defs><path class="cls-1" d="M41.7,28.54a.75.75,0,0,0,0-.17c0-1.18,0-2.36,0-3.54a.8.8,0,0,0-.7-.78,2.38,2.38,0,0,0-.38,0H32.27a.62.62,0,0,1-.06-1.24,1.67,1.67,0,0,1,.32,0h8.2A2.1,2.1,0,0,1,43,25V40.47a2.71,2.71,0,0,1,0,.29.65.65,0,0,1-.63.55.64.64,0,0,1-.62-.59c0-.1,0-.21,0-.32V29.82H1.26v.35c0,3.43,0,6.87,0,10.3a1.38,1.38,0,0,1-.06.46.6.6,0,0,1-.63.37A.62.62,0,0,1,0,40.78c0-.1,0-.2,0-.29V25a2,2,0,0,1,1.41-2.06,2.31,2.31,0,0,1,.69-.11H9.87c.46,0,.74.26.73.65a.59.59,0,0,1-.53.6,2.36,2.36,0,0,1-.38,0H2.33c-.81,0-1.07.26-1.07,1.09,0,1,0,2,0,3.06,0,.29.08.36.36.36H41.7Z"/><path class="cls-1" d="M26.69,25.64l.38,0c.76,0,1.52,0,2.28,0,.53,0,.85.46.62.88a1,1,0,0,1-.47.35.87.87,0,0,1-.4,0H13.54a.64.64,0,0,1-.59-.62.61.61,0,0,1,.6-.62c.63,0,1.25,0,1.87,0l.42,0-.28-.31-3.28-3.28a2.23,2.23,0,0,1,0-3.38L30.17.77a2.26,2.26,0,0,1,3.34,0L40.9,8.12a2.23,2.23,0,0,1,.67,2.1,2.43,2.43,0,0,1-.7,1.22L34.32,18,27,25.36C26.88,25.43,26.81,25.5,26.69,25.64Z"/></svg>