<svg id="Layer_1" data-name="Layer 1" xmlns="http://www.w3.org/2000/svg" xmlns:xlink="http://www.w3.org/1999/xlink" viewBox="0 0 48.61 48.62"><defs><style>.cls-1,.cls-10,.cls-11,.cls-12,.cls-13,.cls-14,.cls-3,.cls-4,.cls-5,.cls-6,.cls-7,.cls-8,.cls-9{fill:none;}.cls-2{clip-path:url(#clip-path);}.cls-10,.cls-11,.cls-12,.cls-13,.cls-14,.cls-3,.cls-4,.cls-5,.cls-6,.cls-7,.cls-8,.cls-9{stroke:#3a506b;stroke-linecap:round;stroke-linejoin:round;}.cls-3{stroke-width:2.26px;}.cls-4{stroke-width:2.39px;}.cls-5{stroke-width:2.38px;}.cls-6{stroke-width:2.37px;}.cls-7{stroke-width:2.36px;}.cls-8{stroke-width:2.35px;}.cls-9{stroke-width:2.52px;}.cls-10{stroke-width:2.51px;}.cls-11{stroke-width:2.5px;}.cls-12{stroke-width:2.49px;}.cls-13{stroke-width:2.48px;}.cls-14{stroke-width:2.47px;}.cls-15{fill:#5bc0be;}</style><clipPath id="clip-path"><rect class="cls-1" x="530.33" y="-305.32" width="1205" height="536"/></clipPath></defs><g class="cls-2"><line class="cls-3" x1="84.01" y1="-3.68" x2="40.32" y2="1.21"/><line class="cls-4" x1="90.18" y1="17.93" x2="45.76" y2="25.01"/><line class="cls-5" x1="77.56" y1="13.7" x2="32.52" y2="20.37"/><line class="cls-6" x1="65.04" y1="9.49" x2="19.39" y2="15.77"/><line class="cls-7" x1="52.63" y1="5.33" x2="6.37" y2="11.2"/><line class="cls-7" x1="40.32" y1="1.21" x2="-6.54" y2="6.68"/><line class="cls-8" x1="28.12" y1="-2.89" x2="-19.35" y2="2.19"/><line class="cls-9" x1="86.15" y1="39.16" x2="40.42" y2="48.36"/><line class="cls-10" x1="72.57" y1="34.4" x2="26.17" y2="43.15"/><line class="cls-11" x1="59.12" y1="29.69" x2="12.03" y2="38"/><line class="cls-12" x1="45.76" y1="25.01" x2="-2" y2="32.88"/><line class="cls-12" x1="32.52" y1="20.37" x2="-15.91" y2="27.8"/><line class="cls-13" x1="19.39" y1="15.77" x2="-29.72" y2="22.76"/><line class="cls-14" x1="6.37" y1="11.2" x2="-43.41" y2="17.77"/></g><path class="cls-15" d="M34.26,30c.16.63.29,1.18.43,1.74.24,1,.49,1.91.72,2.86a.27.27,0,0,0,.32.26c.68,0,1.36,0,2,0h.29v1.6l-.27,0H27c-.23,0-.32-.06-.3-.3s0-.7,0-1,.07-.29.29-.29h6.76c-.07-.33-.14-.62-.21-.91-.31-1.23-.62-2.45-.92-3.68a.3.3,0,0,0-.34-.27H27.09c-.35,0-.35,0-.35-.35s0-.7,0-1.05c0-.16.06-.23.22-.22H44.39a2.45,2.45,0,0,0,2.26-1.21A2.34,2.34,0,0,0,47,26c0-.48,0-.95,0-1.43,0-.2-.07-.26-.25-.24H22.27c-.4,0-.4,0-.4-.38s0-.66,0-1c0-.17.05-.26.23-.25H46.61c.38,0,.39,0,.39-.39q0-9.06,0-18.13a2.4,2.4,0,0,0-1.64-2.41,3.23,3.23,0,0,0-1-.14H25.52c-3.35,0-6.71,0-10.06,0a2.32,2.32,0,0,0-2.29,1.51A2.94,2.94,0,0,0,13,4.27c0,3.58,0,7.15,0,10.73,0,.39,0,.39-.39.39h-1c-.17,0-.23-.06-.23-.23,0-.4,0-.81,0-1.22,0-3.24,0-6.48,0-9.73A4.05,4.05,0,0,1,12.72,1a3.85,3.85,0,0,1,2.54-1C16,0,16.7,0,17.43,0h27a4,4,0,0,1,3.63,2.05,3.81,3.81,0,0,1,.53,1.84V25.82A4,4,0,0,1,47.22,29a4.07,4.07,0,0,1-2.81,1H34.26Z"/><path class="cls-15" d="M9.58,23.48,9,22.32l-1.54-3a.83.83,0,0,1,.33-1.22,12.08,12.08,0,0,1,1.58-.86,4,4,0,0,1,3.21.13,2.89,2.89,0,0,0,2.44,0,4.24,4.24,0,0,1,4,.26c.25.15.49.31.73.47a.85.85,0,0,1,.33,1.26c-.66,1.28-1.32,2.56-2,3.83-.12.22-.06.3.14.39A11.23,11.23,0,0,1,24.36,30a11.35,11.35,0,0,1,.76,4.23v7.34a.91.91,0,0,0,.19.59c.55.71,1.08,1.43,1.62,2.15a2.63,2.63,0,0,1-.43,3.8,2.73,2.73,0,0,1-1.7.55H2.68A2.65,2.65,0,0,1,0,45.86a2.59,2.59,0,0,1,.51-1.44L2.18,42.2a1.15,1.15,0,0,0,.26-.76c0-2.43,0-4.86,0-7.29a11.29,11.29,0,0,1,2.39-7.07,11.13,11.13,0,0,1,4.46-3.45Z"/><path class="cls-15" d="M33.64,21.07H22.25c-.38,0-.38,0-.38-.38s0-.68,0-1c0-.16.07-.23.23-.22H45.18c.15,0,.2.06.2.21,0,.38,0,.76,0,1.15,0,.22-.08.26-.28.26H33.64Z"/><path class="cls-15" d="M4,17a.83.83,0,0,1-.79-.7A3.08,3.08,0,0,0,.69,13.76.84.84,0,0,1,0,13a.85.85,0,0,1,.72-.81,3.07,3.07,0,0,0,2.35-1.93,3.58,3.58,0,0,0,.16-.56A.85.85,0,0,1,4,8.92a.8.8,0,0,1,.82.72,3.12,3.12,0,0,0,2.55,2.52.79.79,0,0,1,.68.79.8.8,0,0,1-.67.81,3.12,3.12,0,0,0-2.57,2.56A.79.79,0,0,1,4,17ZM3.09,13l.94,1,1-.95-1-1Z"/><path class="cls-15" d="M43.76,12.14c0-1.78,0-3.56,0-5.34,0-.26.07-.35.33-.33s.61,0,.92,0,.38,0,.38.37v7.54c0,1,0,2.1,0,3.15,0,.24-.07.32-.3.31a8.18,8.18,0,0,0-1,0c-.26,0-.34-.07-.34-.33C43.76,15.72,43.76,13.93,43.76,12.14Z"/><path class="cls-15" d="M42.14,12.55v4.94c0,.34,0,.34-.34.34s-.66,0-1,0-.3-.08-.29-.3V7.63c0-.33,0-.33.33-.33h.95c.34,0,.34,0,.34.36Z"/><path class="cls-15" d="M37.27,13.36c0-1.37,0-2.75,0-4.12,0-.26.07-.34.33-.33s.71,0,1.07,0c.17,0,.23.07.23.24v8.43c0,.18-.06.26-.25.25-.37,0-.75,0-1.12,0s-.26-.12-.26-.3Z"/><path class="cls-15" d="M32.4,14.17c0,1.12,0,2.24,0,3.36,0,.23-.06.32-.31.31a8.51,8.51,0,0,0-1,0c-.24,0-.32-.07-.31-.31,0-.91,0-1.81,0-2.72v-4c0-.23,0-.32.29-.31s.71,0,1.07,0,.27.07.27.28C32.4,11.93,32.4,13.05,32.4,14.17Z"/><path class="cls-15" d="M27.54,15c0-.86,0-1.73,0-2.59,0-.19.05-.26.24-.25h1.15c.17,0,.24,0,.24.22q0,2.61,0,5.22c0,.19-.07.25-.26.25a9.37,9.37,0,0,0-1.06,0c-.23,0-.32-.07-.31-.3C27.55,16.69,27.54,15.84,27.54,15Z"/><path class="cls-15" d="M35.65,15c0,.85,0,1.69,0,2.54,0,.24-.08.32-.32.31s-.71,0-1.06,0c-.19,0-.26-.08-.26-.26q0-2.59,0-5.19c0-.2.08-.25.26-.24H35.4c.21,0,.26.08.25.27Z"/><path class="cls-15" d="M22.69,15.78c0,.59,0,1.19,0,1.78,0,.21-.07.28-.28.28-.36,0-.73,0-1.09,0-.18,0-.26-.05-.26-.25,0-1.2,0-2.4,0-3.61,0-.17.06-.22.22-.21.39,0,.78,0,1.17,0,.18,0,.24.07.24.24C22.69,14.59,22.69,15.19,22.69,15.78Z"/><path class="cls-15" d="M24.31,16.19V14.82c0-.16,0-.24.21-.24h1.19c.17,0,.22.07.22.23,0,.94,0,1.87,0,2.8,0,.17-.06.23-.23.22-.39,0-.78,0-1.17,0-.19,0-.23-.08-.22-.25Z"/><path class="cls-15" d="M19.46,15.39a4.34,4.34,0,0,0,0,.51c0,.23-.05.33-.3.32s-.71,0-1.07,0c-.18,0-.26,0-.26-.24q0-.59,0-1.17c0-.14.05-.22.2-.22h1.2c.16,0,.24.06.23.23S19.46,15.2,19.46,15.39Z"/><path class="cls-15" d="M3.09,13l1-.95,1,1-1,.95Z"/></svg>