<svg id="Layer_1" data-name="Layer 1" xmlns="http://www.w3.org/2000/svg" xmlns:xlink="http://www.w3.org/1999/xlink" viewBox="0 0 42.57 39.06"><defs><style>.cls-1{fill:none;}.cls-2{clip-path:url(#clip-path);}.cls-3{fill:#5bc0be;}</style><clipPath id="clip-path"><rect class="cls-1" x="532.23" y="-120.54" width="1205" height="536"/></clipPath></defs><path class="cls-3" d="M6.46,33.46V29.15c0-.86.2-1.1,1.1-1.31,1.1-.26,2.21-.55,3.32-.76s2.35-.4,3.52-.56a48.46,48.46,0,0,1,7.12-.45,47,47,0,0,1,5.56.31c1.3.15,2.6.33,3.88.57,1.47.28,2.93.64,4.39,1a.92.92,0,0,1,.75.91c0,.13,0,.27,0,.4V38a.94.94,0,0,1-.6,1,1.3,1.3,0,0,1-.65,0c-1.28-.28-2.54-.6-3.83-.85s-2.48-.44-3.73-.57c-1.51-.16-3-.24-4.56-.32a40.87,40.87,0,0,0-5.64.15c-1.22.09-2.44.23-3.65.43-1.54.26-3.07.6-4.6.91-.33.07-.67.17-1,.26a1,1,0,0,1-1.25-.45A1.42,1.42,0,0,1,6.47,38C6.46,36.45,6.46,35,6.46,33.46Zm1.89,3.43c1.32-.25,2.59-.54,3.87-.74s2.81-.44,4.23-.57,2.61-.16,3.92-.2a41.33,41.33,0,0,1,5.22.16c.88.08,1.75.16,2.62.28s2,.28,3,.46,1.84.39,2.76.58c.27.06.27.06.27-.23v-6.5c0-.53,0-.53-.51-.67l-.19-.06c-.89-.18-1.78-.38-2.68-.55s-1.6-.29-2.4-.4-1.87-.24-2.81-.3c-1.5-.09-3-.17-4.5-.19a45.92,45.92,0,0,0-5.62.31c-.77.09-1.54.2-2.31.32s-1.65.29-2.46.45-1.48.34-2.22.49c-.18,0-.21.14-.21.3v6.82C8.33,36.73,8.35,36.81,8.35,36.89Z"/><path class="cls-3" d="M15.22,19.54c.06-.38.13-.81.2-1.23.13-.81.27-1.62.4-2.43.1-.57.18-1.15.29-1.72a.38.38,0,0,0-.13-.39l-3.62-3.7a.91.91,0,0,1,.07-1.43,1.89,1.89,0,0,1,.75-.24c1-.18,2-.34,3-.51.57-.09,1.14-.18,1.7-.29a.39.39,0,0,0,.26-.19q1.14-2.4,2.26-4.8a.93.93,0,0,1,1.75,0l2.25,4.8a.32.32,0,0,0,.27.2l2.64.4,2.38.37A.92.92,0,0,1,30.25,10q-1.8,1.86-3.62,3.7a.47.47,0,0,0-.15.43c.15.83.28,1.65.42,2.47s.25,1.57.38,2.35a4.84,4.84,0,0,1,.09.65.93.93,0,0,1-.72.91,1,1,0,0,1-.82-.14Q23.69,19.16,21.55,18A.47.47,0,0,0,21,18c-1.47.82-2.93,1.63-4.4,2.43A.93.93,0,0,1,15.22,19.54Z"/><path class="cls-3" d="M33.33,18.58a.94.94,0,0,1,.51-.85.89.89,0,0,1,1,.08l2.24,1.57c.25.17.5.34.74.53A.9.9,0,0,1,38,21.19a1,1,0,0,1-1.32.24l-2.93-2.05A.92.92,0,0,1,33.33,18.58Z"/><path class="cls-3" d="M8.91,3.1a.93.93,0,0,1-.52.81.88.88,0,0,1-1-.06c-1-.71-2-1.41-3-2.13A.91.91,0,0,1,4.12.55.91.91,0,0,1,5.23.07,2.54,2.54,0,0,1,5.9.46L8.48,2.28A.92.92,0,0,1,8.91,3.1Z"/><path class="cls-3" d="M33.33,2.94a.92.92,0,0,1,.47-.67L35.7.92l1-.74a.89.89,0,0,1,1,0A.89.89,0,0,1,38.2,1a.87.87,0,0,1-.38.68c-1,.73-2,1.46-3,2.18a.88.88,0,0,1-1,0A.94.94,0,0,1,33.33,2.94Z"/><path class="cls-3" d="M5,21.59A.9.9,0,0,1,4.1,21a.88.88,0,0,1,.31-1.07c.6-.45,1.22-.88,1.83-1.31l1.17-.83a.92.92,0,0,1,1.16,1.43c-.32.26-.67.5-1,.74-.64.47-1.29.94-1.95,1.39a3.11,3.11,0,0,1-.61.29Z"/><path class="cls-3" d="M2.77,9.43H4.62A.92.92,0,0,1,5,11.2a1.1,1.1,0,0,1-.44.07H1a.92.92,0,0,1-1-1A.91.91,0,0,1,.9,9.43Z"/><path class="cls-3" d="M39.82,9.43h1.85a.92.92,0,0,1,.88.72A.91.91,0,0,1,42,11.21a1,1,0,0,1-.38.06H38a.88.88,0,0,1-.92-.69.92.92,0,0,1,.87-1.15Z"/></svg>